<?xml version="1.0" encoding="UTF-8"?>
<!DOCTYPE svg PUBLIC "-//W3C//DTD SVG 1.1//EN" "http://www.w3.org/Graphics/SVG/1.1/DTD/svg11.dtd">
<svg xmlns="http://www.w3.org/2000/svg" version="1.1" width="32px" height="32px" style="shape-rendering:geometricPrecision; text-rendering:geometricPrecision; image-rendering:optimizeQuality; fill-rule:evenodd; clip-rule:evenodd" xmlns:xlink="http://www.w3.org/1999/xlink">
<g><path style="opacity:0.976" fill="#b4a98d" d="M 9.5,0.5 C 9.5,0.166667 9.5,-0.166667 9.5,-0.5C 11.8333,-0.5 14.1667,-0.5 16.5,-0.5C 16.5,-0.166667 16.5,0.166667 16.5,0.5C 14.901,0.232191 13.5676,0.565525 12.5,1.5C 12.1667,1.5 11.8333,1.5 11.5,1.5C 11.1583,0.661754 10.4916,0.32842 9.5,0.5 Z"/></g>
<g><path style="opacity:0.969" fill="#b0a48d" d="M 16.5,0.5 C 16.5,0.166667 16.5,-0.166667 16.5,-0.5C 18.1667,-0.5 19.8333,-0.5 21.5,-0.5C 22.1667,0.166667 22.8333,0.833333 23.5,1.5C 22.5084,1.32842 21.8417,1.66175 21.5,2.5C 20.2921,1.76589 18.9587,1.43255 17.5,1.5C 17.5,0.833333 17.1667,0.5 16.5,0.5 Z"/></g>
<g><path style="opacity:0.929" fill="#cbbe9d" d="M 9.5,0.5 C 10.4916,0.32842 11.1583,0.661754 11.5,1.5C 10.6618,1.84171 10.3284,2.50838 10.5,3.5C 10.1667,3.5 9.83333,3.5 9.5,3.5C 9.15829,2.66175 8.49162,2.32842 7.5,2.5C 7.16667,2.5 6.83333,2.5 6.5,2.5C 6.97306,1.09368 7.97306,0.427017 9.5,0.5 Z"/></g>
<g><path style="opacity:1" fill="#557f2e" d="M 11.5,1.5 C 11.8333,1.5 12.1667,1.5 12.5,1.5C 13.4916,1.32842 14.1583,1.66175 14.5,2.5C 14.5,2.83333 14.5,3.16667 14.5,3.5C 13.2976,2.59464 11.9643,2.59464 10.5,3.5C 10.3284,2.50838 10.6618,1.84171 11.5,1.5 Z"/></g>
<g><path style="opacity:1" fill="#5c8733" d="M 12.5,1.5 C 13.5676,0.565525 14.901,0.232191 16.5,0.5C 17.1667,0.5 17.5,0.833333 17.5,1.5C 16.391,1.55688 15.391,1.89022 14.5,2.5C 14.1583,1.66175 13.4916,1.32842 12.5,1.5 Z"/></g>
<g><path style="opacity:1" fill="#d4bf99" d="M 23.5,1.5 C 25.5,2.83333 27.1667,4.5 28.5,6.5C 28.5,7.16667 28.5,7.83333 28.5,8.5C 26.8333,7.16667 25.1667,5.83333 23.5,4.5C 23.5,3.83333 23.1667,3.5 22.5,3.5C 21.8333,3.5 21.5,3.16667 21.5,2.5C 21.8417,1.66175 22.5084,1.32842 23.5,1.5 Z"/></g>
<g><path style="opacity:1" fill="#3e5920" d="M 17.5,1.5 C 18.3065,2.72813 19.3065,3.72813 20.5,4.5C 20.1667,4.5 19.8333,4.5 19.5,4.5C 17.8333,4.5 16.1667,4.5 14.5,4.5C 14.5,4.16667 14.5,3.83333 14.5,3.5C 14.5,3.16667 14.5,2.83333 14.5,2.5C 15.391,1.89022 16.391,1.55688 17.5,1.5 Z"/></g>
<g><path style="opacity:1" fill="#547f2b" d="M 17.5,1.5 C 18.9587,1.43255 20.2921,1.76589 21.5,2.5C 21.5,3.16667 21.8333,3.5 22.5,3.5C 22.5,3.83333 22.5,4.16667 22.5,4.5C 21.8333,4.5 21.1667,4.5 20.5,4.5C 19.3065,3.72813 18.3065,2.72813 17.5,1.5 Z"/></g>
<g><path style="opacity:1" fill="#e7cb96" d="M 6.5,2.5 C 6.83333,2.5 7.16667,2.5 7.5,2.5C 7.16667,3.16667 6.83333,3.83333 6.5,4.5C 5.83333,4.83333 5.16667,5.16667 4.5,5.5C 4.5,4.83333 4.5,4.16667 4.5,3.5C 5.16667,3.16667 5.83333,2.83333 6.5,2.5 Z"/></g>
<g><path style="opacity:0.996" fill="#d1cebf" d="M 7.5,2.5 C 8.49162,2.32842 9.15829,2.66175 9.5,3.5C 8.59603,4.20895 8.26269,5.20895 8.5,6.5C 8.16667,6.5 7.83333,6.5 7.5,6.5C 7.67158,5.50838 7.33825,4.84171 6.5,4.5C 6.83333,3.83333 7.16667,3.16667 7.5,2.5 Z"/></g>
<g><path style="opacity:1" fill="#476a25" d="M 14.5,3.5 C 14.5,3.83333 14.5,4.16667 14.5,4.5C 14.1667,4.5 13.8333,4.5 13.5,4.5C 11.5168,4.15684 10.1834,4.82351 9.5,6.5C 9.16667,6.5 8.83333,6.5 8.5,6.5C 8.26269,5.20895 8.59603,4.20895 9.5,3.5C 9.83333,3.5 10.1667,3.5 10.5,3.5C 11.9643,2.59464 13.2976,2.59464 14.5,3.5 Z"/></g>
<g><path style="opacity:0.998" fill="#ebede8" d="M 6.5,4.5 C 7.33825,4.84171 7.67158,5.50838 7.5,6.5C 7.5,7.16667 7.16667,7.5 6.5,7.5C 5.50838,7.67158 4.84171,7.33825 4.5,6.5C 4.5,6.16667 4.5,5.83333 4.5,5.5C 5.16667,5.16667 5.83333,4.83333 6.5,4.5 Z"/></g>
<g><path style="opacity:1" fill="#2e311c" d="M 13.5,4.5 C 12.8902,5.39105 12.5569,6.39105 12.5,7.5C 12.1667,7.5 11.8333,7.5 11.5,7.5C 11.1583,6.66175 10.4916,6.32842 9.5,6.5C 10.1834,4.82351 11.5168,4.15684 13.5,4.5 Z"/></g>
<g><path style="opacity:1" fill="#3d5124" d="M 19.5,4.5 C 19.8333,4.5 20.1667,4.5 20.5,4.5C 21.1667,4.5 21.8333,4.5 22.5,4.5C 22.6716,5.49162 22.3382,6.15829 21.5,6.5C 20.5,6.5 19.5,6.5 18.5,6.5C 18.1667,6.5 17.8333,6.5 17.5,6.5C 18.1667,5.83333 18.8333,5.16667 19.5,4.5 Z"/></g>
<g><path style="opacity:0.765" fill="#dad7c9" d="M 23.5,4.5 C 25.1667,5.83333 26.8333,7.16667 28.5,8.5C 28.5569,9.60895 28.8902,10.609 29.5,11.5C 28.8333,11.5 28.1667,11.5 27.5,11.5C 27.5,11.1667 27.5,10.8333 27.5,10.5C 27.1667,9.5 26.5,8.83333 25.5,8.5C 25.5,7.83333 25.1667,7.5 24.5,7.5C 23.8902,6.60895 23.5569,5.60895 23.5,4.5 Z"/></g>
<g><path style="opacity:1" fill="#c79662" d="M 4.5,3.5 C 4.5,4.16667 4.5,4.83333 4.5,5.5C 4.5,5.83333 4.5,6.16667 4.5,6.5C 3.32627,7.51369 2.6596,8.84702 2.5,10.5C 1.54885,11.9187 1.21552,13.5853 1.5,15.5C 1.5,16.8333 1.5,18.1667 1.5,19.5C 0.523331,16.7131 0.189998,13.7131 0.5,10.5C 1.0787,7.66895 2.41203,5.33561 4.5,3.5 Z"/></g>
<g><path style="opacity:1" fill="#312c25" d="M 13.5,4.5 C 13.8333,4.5 14.1667,4.5 14.5,4.5C 16.1667,4.5 17.8333,4.5 19.5,4.5C 18.8333,5.16667 18.1667,5.83333 17.5,6.5C 16.8333,6.83333 16.1667,7.16667 15.5,7.5C 14.8333,7.5 14.5,7.83333 14.5,8.5C 13.8333,8.16667 13.1667,7.83333 12.5,7.5C 12.5569,6.39105 12.8902,5.39105 13.5,4.5 Z"/></g>
<g><path style="opacity:1" fill="#648541" d="M 22.5,3.5 C 23.1667,3.5 23.5,3.83333 23.5,4.5C 23.5569,5.60895 23.8902,6.60895 24.5,7.5C 23.209,7.73731 22.209,7.40397 21.5,6.5C 22.3382,6.15829 22.6716,5.49162 22.5,4.5C 22.5,4.16667 22.5,3.83333 22.5,3.5 Z"/></g>
<g><path style="opacity:1" fill="#456c20" d="M 7.5,6.5 C 7.83333,6.5 8.16667,6.5 8.5,6.5C 8.83333,6.5 9.16667,6.5 9.5,6.5C 9.61071,7.11742 9.94404,7.61742 10.5,8C 9.20677,8.49001 7.87344,8.65668 6.5,8.5C 6.5,8.16667 6.5,7.83333 6.5,7.5C 7.16667,7.5 7.5,7.16667 7.5,6.5 Z"/></g>
<g><path style="opacity:1" fill="#3d4f24" d="M 11.5,7.5 C 11.8333,7.5 12.1667,7.5 12.5,7.5C 13.1667,7.83333 13.8333,8.16667 14.5,8.5C 15.5676,9.43448 16.901,9.76781 18.5,9.5C 18.5,9.83333 18.5,10.1667 18.5,10.5C 17.1667,10.5 15.8333,10.5 14.5,10.5C 14.1667,10.5 13.8333,10.5 13.5,10.5C 12.5,10.5 11.5,10.5 10.5,10.5C 9.16667,10.5 7.83333,10.5 6.5,10.5C 5.83333,10.5 5.5,10.1667 5.5,9.5C 8.08209,9.97461 10.0821,9.30794 11.5,7.5 Z"/></g>
<g><path style="opacity:1" fill="#486d25" d="M 17.5,6.5 C 17.8333,6.5 18.1667,6.5 18.5,6.5C 18.8333,7.16667 19.1667,7.83333 19.5,8.5C 19.1667,8.5 18.8333,8.5 18.5,8.5C 17.209,8.73731 16.209,8.40397 15.5,7.5C 16.1667,7.16667 16.8333,6.83333 17.5,6.5 Z"/></g>
<g><path style="opacity:1" fill="#517a2a" d="M 18.5,6.5 C 19.5,6.5 20.5,6.5 21.5,6.5C 22.209,7.40397 23.209,7.73731 24.5,7.5C 25.1667,7.5 25.5,7.83333 25.5,8.5C 24.8333,8.83333 24.1667,9.16667 23.5,9.5C 22.4324,8.56552 21.099,8.23219 19.5,8.5C 19.1667,7.83333 18.8333,7.16667 18.5,6.5 Z"/></g>
<g><path style="opacity:1" fill="#375518" d="M 9.5,6.5 C 10.4916,6.32842 11.1583,6.66175 11.5,7.5C 10.0821,9.30794 8.08209,9.97461 5.5,9.5C 5.16667,9.5 4.83333,9.5 4.5,9.5C 4.84171,8.66175 5.50838,8.32842 6.5,8.5C 7.87344,8.65668 9.20677,8.49001 10.5,8C 9.94404,7.61742 9.61071,7.11742 9.5,6.5 Z"/></g>
<g><path style="opacity:1" fill="#436423" d="M 15.5,7.5 C 16.209,8.40397 17.209,8.73731 18.5,8.5C 18.5,8.83333 18.5,9.16667 18.5,9.5C 16.901,9.76781 15.5676,9.43448 14.5,8.5C 14.5,7.83333 14.8333,7.5 15.5,7.5 Z"/></g>
<g><path style="opacity:1" fill="#3e5a20" d="M 18.5,8.5 C 18.8333,8.5 19.1667,8.5 19.5,8.5C 21.099,8.23219 22.4324,8.56552 23.5,9.5C 21.901,9.23219 20.5676,9.56552 19.5,10.5C 19.1667,10.5 18.8333,10.5 18.5,10.5C 18.5,10.1667 18.5,9.83333 18.5,9.5C 18.5,9.16667 18.5,8.83333 18.5,8.5 Z"/></g>
<g><path style="opacity:1" fill="#ced0ce" d="M 4.5,6.5 C 4.84171,7.33825 5.50838,7.67158 6.5,7.5C 6.5,7.83333 6.5,8.16667 6.5,8.5C 5.50838,8.32842 4.84171,8.66175 4.5,9.5C 3.83333,9.5 3.5,9.83333 3.5,10.5C 3.16667,10.5 2.83333,10.5 2.5,10.5C 2.6596,8.84702 3.32627,7.51369 4.5,6.5 Z"/></g>
<g><path style="opacity:0.871" fill="#3a4127" d="M 19.5,10.5 C 20.5676,9.56552 21.901,9.23219 23.5,9.5C 24.5676,10.4345 25.901,10.7678 27.5,10.5C 27.5,10.8333 27.5,11.1667 27.5,11.5C 26.209,11.2627 25.209,11.596 24.5,12.5C 24.5,12.8333 24.5,13.1667 24.5,13.5C 23.8333,13.5 23.1667,13.5 22.5,13.5C 23.6736,11.6322 23.0069,10.6322 20.5,10.5C 20.1667,10.5 19.8333,10.5 19.5,10.5 Z"/></g>
<g><path style="opacity:1" fill="#385a17" d="M 25.5,8.5 C 26.5,8.83333 27.1667,9.5 27.5,10.5C 25.901,10.7678 24.5676,10.4345 23.5,9.5C 24.1667,9.16667 24.8333,8.83333 25.5,8.5 Z"/></g>
<g><path style="opacity:1" fill="#edeae9" d="M 6.5,10.5 C 7.83333,10.5 9.16667,10.5 10.5,10.5C 10.1667,11.1667 9.83333,11.8333 9.5,12.5C 8.83333,12.5 8.16667,12.5 7.5,12.5C 7.16667,11.8333 6.83333,11.1667 6.5,10.5 Z"/></g>
<g><path style="opacity:0.871" fill="#2c2521" d="M 14.5,10.5 C 15.8333,10.5 17.1667,10.5 18.5,10.5C 17.8333,11.1667 17.1667,11.8333 16.5,12.5C 16.1667,12.5 15.8333,12.5 15.5,12.5C 15.1667,11.8333 14.8333,11.1667 14.5,10.5 Z"/></g>
<g><path style="opacity:1" fill="#b2b0af" d="M 4.5,9.5 C 4.83333,9.5 5.16667,9.5 5.5,9.5C 5.5,10.1667 5.83333,10.5 6.5,10.5C 6.83333,11.1667 7.16667,11.8333 7.5,12.5C 7.16667,12.5 6.83333,12.5 6.5,12.5C 4.82124,12.7148 3.82124,12.0481 3.5,10.5C 3.5,9.83333 3.83333,9.5 4.5,9.5 Z"/></g>
<g><path style="opacity:1" fill="#c3b5a5" d="M 10.5,10.5 C 11.5,10.5 12.5,10.5 13.5,10.5C 13.5,11.5 13.5,12.5 13.5,13.5C 12.0413,13.5674 10.7079,13.2341 9.5,12.5C 9.83333,11.8333 10.1667,11.1667 10.5,10.5 Z"/></g>
<g><path style="opacity:0.671" fill="#4e473e" d="M 13.5,10.5 C 13.8333,10.5 14.1667,10.5 14.5,10.5C 14.8333,11.1667 15.1667,11.8333 15.5,12.5C 14.6618,12.8417 14.3284,13.5084 14.5,14.5C 13.8333,14.5 13.5,14.1667 13.5,13.5C 13.5,12.5 13.5,11.5 13.5,10.5 Z"/></g>
<g><path style="opacity:1" fill="#b8ad9c" d="M 20.5,10.5 C 23.0069,10.6322 23.6736,11.6322 22.5,13.5C 21.8333,13.5 21.1667,13.5 20.5,13.5C 20.5,13.1667 20.5,12.8333 20.5,12.5C 20.5,11.8333 20.5,11.1667 20.5,10.5 Z"/></g>
<g><path style="opacity:1" fill="#f5f6f3" d="M 24.5,12.5 C 25.209,11.596 26.209,11.2627 27.5,11.5C 28.1667,11.5 28.8333,11.5 29.5,11.5C 29.5,12.8333 29.5,14.1667 29.5,15.5C 29.1667,15.5 28.8333,15.5 28.5,15.5C 27.7377,13.7376 26.4044,12.7376 24.5,12.5 Z"/></g>
<g><path style="opacity:1" fill="#c9935d" d="M 28.5,6.5 C 29.6737,7.51369 30.3404,8.84702 30.5,10.5C 30.81,13.7131 30.4767,16.7131 29.5,19.5C 29.5,18.1667 29.5,16.8333 29.5,15.5C 29.5,14.1667 29.5,12.8333 29.5,11.5C 28.8902,10.609 28.5569,9.60895 28.5,8.5C 28.5,7.83333 28.5,7.16667 28.5,6.5 Z"/></g>
<g><path style="opacity:1" fill="#f0efe9" d="M 2.5,10.5 C 2.83333,10.5 3.16667,10.5 3.5,10.5C 3.82124,12.0481 4.82124,12.7148 6.5,12.5C 6.5,12.8333 6.5,13.1667 6.5,13.5C 5.83333,13.5 5.5,13.8333 5.5,14.5C 4.60895,15.1098 3.60895,15.4431 2.5,15.5C 2.16667,15.5 1.83333,15.5 1.5,15.5C 1.21552,13.5853 1.54885,11.9187 2.5,10.5 Z"/></g>
<g><path style="opacity:1" fill="#455c2a" d="M 6.5,13.5 C 6.5,13.1667 6.5,12.8333 6.5,12.5C 6.83333,12.5 7.16667,12.5 7.5,12.5C 8.16667,12.5 8.83333,12.5 9.5,12.5C 9.5,13.5 9.5,14.5 9.5,15.5C 8.77765,14.4489 7.77765,13.7822 6.5,13.5 Z"/></g>
<g><path style="opacity:1" fill="#304318" d="M 9.5,12.5 C 10.7079,13.2341 12.0413,13.5674 13.5,13.5C 13.5,14.1667 13.8333,14.5 14.5,14.5C 14.5,14.8333 14.5,15.1667 14.5,15.5C 13.5084,15.3284 12.8417,15.6618 12.5,16.5C 11.7784,16.0825 11.2784,15.4158 11,14.5C 10.6012,14.7284 10.4346,15.0618 10.5,15.5C 10.1667,15.5 9.83333,15.5 9.5,15.5C 9.5,14.5 9.5,13.5 9.5,12.5 Z"/></g>
<g><path style="opacity:0.976" fill="#615b54" d="M 15.5,12.5 C 15.8333,12.5 16.1667,12.5 16.5,12.5C 17.8333,12.5 19.1667,12.5 20.5,12.5C 20.5,12.8333 20.5,13.1667 20.5,13.5C 19.8333,14.1667 19.1667,14.8333 18.5,15.5C 17.1667,15.5 15.8333,15.5 14.5,15.5C 14.5,15.1667 14.5,14.8333 14.5,14.5C 14.3284,13.5084 14.6618,12.8417 15.5,12.5 Z"/></g>
<g><path style="opacity:1" fill="#345117" d="M 20.5,13.5 C 21.1667,13.5 21.8333,13.5 22.5,13.5C 23.1667,13.5 23.8333,13.5 24.5,13.5C 24.5,13.8333 24.5,14.1667 24.5,14.5C 22.9731,14.427 21.9731,15.0937 21.5,16.5C 21.1667,16.5 20.8333,16.5 20.5,16.5C 19.5084,16.6716 18.8417,16.3382 18.5,15.5C 19.1667,14.8333 19.8333,14.1667 20.5,13.5 Z"/></g>
<g><path style="opacity:1" fill="#456a23" d="M 24.5,12.5 C 26.4044,12.7376 27.7377,13.7376 28.5,15.5C 28.5,15.8333 28.5,16.1667 28.5,16.5C 26.9382,16.2671 25.6049,15.6005 24.5,14.5C 24.5,14.1667 24.5,13.8333 24.5,13.5C 24.5,13.1667 24.5,12.8333 24.5,12.5 Z"/></g>
<g><path style="opacity:0.753" fill="#773e14" d="M -0.5,10.5 C -0.166667,10.5 0.166667,10.5 0.5,10.5C 0.189998,13.7131 0.523331,16.7131 1.5,19.5C 1.5,19.8333 1.5,20.1667 1.5,20.5C 1.5,21.1667 1.5,21.8333 1.5,22.5C 0.833333,21.8333 0.166667,21.1667 -0.5,20.5C -0.5,17.1667 -0.5,13.8333 -0.5,10.5 Z"/></g>
<g><path style="opacity:1" fill="#4f7b27" d="M 5.5,14.5 C 5.83333,15.1667 6.16667,15.8333 6.5,16.5C 5.04125,16.4326 3.70792,16.7659 2.5,17.5C 2.5,16.8333 2.5,16.1667 2.5,15.5C 3.60895,15.4431 4.60895,15.1098 5.5,14.5 Z"/></g>
<g><path style="opacity:1" fill="#3e611d" d="M 6.5,13.5 C 7.77765,13.7822 8.77765,14.4489 9.5,15.5C 9.83333,15.5 10.1667,15.5 10.5,15.5C 9.83333,16.1667 9.16667,16.8333 8.5,17.5C 7.83333,17.1667 7.16667,16.8333 6.5,16.5C 6.16667,15.8333 5.83333,15.1667 5.5,14.5C 5.5,13.8333 5.83333,13.5 6.5,13.5 Z"/></g>
<g><path style="opacity:1" fill="#344e19" d="M 12.5,16.5 C 12.8333,16.5 13.1667,16.5 13.5,16.5C 13.5,17.1667 13.5,17.8333 13.5,18.5C 12.8333,18.5 12.1667,18.5 11.5,18.5C 11.1667,18.5 10.8333,18.5 10.5,18.5C 10.1583,17.6618 9.49162,17.3284 8.5,17.5C 9.16667,16.8333 9.83333,16.1667 10.5,15.5C 10.4346,15.0618 10.6012,14.7284 11,14.5C 11.2784,15.4158 11.7784,16.0825 12.5,16.5 Z"/></g>
<g><path style="opacity:1" fill="#201b15" d="M 12.5,16.5 C 12.8417,15.6618 13.5084,15.3284 14.5,15.5C 15.8333,15.5 17.1667,15.5 18.5,15.5C 18.8417,16.3382 19.5084,16.6716 20.5,16.5C 20.5,16.8333 20.5,17.1667 20.5,17.5C 19.0413,17.5674 17.7079,17.2341 16.5,16.5C 15.5,16.5 14.5,16.5 13.5,16.5C 13.1667,16.5 12.8333,16.5 12.5,16.5 Z"/></g>
<g><path style="opacity:1" fill="#3c4a27" d="M 24.5,14.5 C 25.6049,15.6005 26.9382,16.2671 28.5,16.5C 28.5,17.1667 28.1667,17.5 27.5,17.5C 25.4352,17.4828 23.4352,17.1495 21.5,16.5C 21.9731,15.0937 22.9731,14.427 24.5,14.5 Z"/></g>
<g><path style="opacity:1" fill="#2e3e16" d="M 6.5,16.5 C 6.5,17.1667 6.5,17.8333 6.5,18.5C 4.90097,18.7678 3.56764,18.4345 2.5,17.5C 3.70792,16.7659 5.04125,16.4326 6.5,16.5 Z"/></g>
<g><path style="opacity:1" fill="#3d5521" d="M 6.5,16.5 C 7.16667,16.8333 7.83333,17.1667 8.5,17.5C 9.49162,17.3284 10.1583,17.6618 10.5,18.5C 10.1667,18.5 9.83333,18.5 9.5,18.5C 9.16667,18.5 8.83333,18.5 8.5,18.5C 7.83333,18.5 7.16667,18.5 6.5,18.5C 6.5,17.8333 6.5,17.1667 6.5,16.5 Z"/></g>
<g><path style="opacity:1" fill="#4c453d" d="M 16.5,16.5 C 17.7079,17.2341 19.0413,17.5674 20.5,17.5C 20.5,17.8333 20.5,18.1667 20.5,18.5C 19.8333,19.1667 19.1667,19.8333 18.5,20.5C 18.1667,20.5 17.8333,20.5 17.5,20.5C 16.8333,20.1667 16.1667,19.8333 15.5,19.5C 16.1098,18.609 16.4431,17.609 16.5,16.5 Z"/></g>
<g><path style="opacity:1" fill="#cac8c5" d="M 20.5,17.5 C 20.5,17.1667 20.5,16.8333 20.5,16.5C 20.8333,16.5 21.1667,16.5 21.5,16.5C 23.4352,17.1495 25.4352,17.4828 27.5,17.5C 27.1667,18.1667 26.8333,18.8333 26.5,19.5C 26.5,20.1667 26.1667,20.5 25.5,20.5C 25.6716,19.5084 25.3382,18.8417 24.5,18.5C 23.8333,18.5 23.1667,18.5 22.5,18.5C 22.1583,17.6618 21.4916,17.3284 20.5,17.5 Z"/></g>
<g><path style="opacity:1" fill="#c3c4b9" d="M 1.5,15.5 C 1.83333,15.5 2.16667,15.5 2.5,15.5C 2.5,16.1667 2.5,16.8333 2.5,17.5C 3.56764,18.4345 4.90097,18.7678 6.5,18.5C 6.5,18.8333 6.5,19.1667 6.5,19.5C 4.90097,19.2322 3.56764,19.5655 2.5,20.5C 2.16667,20.5 1.83333,20.5 1.5,20.5C 1.5,20.1667 1.5,19.8333 1.5,19.5C 1.5,18.1667 1.5,16.8333 1.5,15.5 Z"/></g>
<g><path style="opacity:1" fill="#a8a093" d="M 13.5,16.5 C 14.5,16.5 15.5,16.5 16.5,16.5C 16.4431,17.609 16.1098,18.609 15.5,19.5C 14.8333,19.5 14.5,19.8333 14.5,20.5C 14.1667,20.5 13.8333,20.5 13.5,20.5C 13.5,19.8333 13.5,19.1667 13.5,18.5C 13.5,17.8333 13.5,17.1667 13.5,16.5 Z"/></g>
<g><path style="opacity:1" fill="#f1f0ed" d="M 20.5,17.5 C 21.4916,17.3284 22.1583,17.6618 22.5,18.5C 22.5,19.1667 22.5,19.8333 22.5,20.5C 21.6618,20.8417 21.3284,21.5084 21.5,22.5C 21.1667,22.5 20.8333,22.5 20.5,22.5C 20.5,21.1667 20.5,19.8333 20.5,18.5C 20.5,18.1667 20.5,17.8333 20.5,17.5 Z"/></g>
<g><path style="opacity:1" fill="#e5e4da" d="M 28.5,15.5 C 28.8333,15.5 29.1667,15.5 29.5,15.5C 29.5,16.8333 29.5,18.1667 29.5,19.5C 29.5,19.8333 29.5,20.1667 29.5,20.5C 29.1667,20.5 28.8333,20.5 28.5,20.5C 28.1583,19.6618 27.4916,19.3284 26.5,19.5C 26.8333,18.8333 27.1667,18.1667 27.5,17.5C 28.1667,17.5 28.5,17.1667 28.5,16.5C 28.5,16.1667 28.5,15.8333 28.5,15.5 Z"/></g>
<g><path style="opacity:1" fill="#fbfcfb" d="M 6.5,19.5 C 7.83333,19.8333 7.83333,20.1667 6.5,20.5C 5.83333,20.5 5.16667,20.5 4.5,20.5C 3.83333,20.8333 3.16667,21.1667 2.5,21.5C 2.5,21.1667 2.5,20.8333 2.5,20.5C 3.56764,19.5655 4.90097,19.2322 6.5,19.5 Z"/></g>
<g><path style="opacity:1" fill="#eeece8" d="M 6.5,19.5 C 6.5,19.1667 6.5,18.8333 6.5,18.5C 7.16667,18.5 7.83333,18.5 8.5,18.5C 8.5,20.5 8.5,22.5 8.5,24.5C 8.16667,24.5 7.83333,24.5 7.5,24.5C 7.56745,23.0413 7.23411,21.7079 6.5,20.5C 7.83333,20.1667 7.83333,19.8333 6.5,19.5 Z"/></g>
<g><path style="opacity:1" fill="#b29d87" d="M 9.5,18.5 C 9.83333,18.5 10.1667,18.5 10.5,18.5C 10.8333,18.5 11.1667,18.5 11.5,18.5C 11.8333,19.1667 12.1667,19.8333 12.5,20.5C 11.5,20.5 10.5,20.5 9.5,20.5C 9.5,19.8333 9.5,19.1667 9.5,18.5 Z"/></g>
<g><path style="opacity:1" fill="#5d5c59" d="M 22.5,18.5 C 23.1667,18.5 23.8333,18.5 24.5,18.5C 24.4431,19.609 24.1098,20.609 23.5,21.5C 22.8333,21.5 22.5,21.1667 22.5,20.5C 22.5,19.8333 22.5,19.1667 22.5,18.5 Z"/></g>
<g><path style="opacity:1" fill="#f8f8f6" d="M 26.5,19.5 C 27.4916,19.3284 28.1583,19.6618 28.5,20.5C 28.4431,21.609 28.1098,22.609 27.5,23.5C 26.8333,22.8333 26.1667,22.1667 25.5,21.5C 25.5,21.1667 25.5,20.8333 25.5,20.5C 26.1667,20.5 26.5,20.1667 26.5,19.5 Z"/></g>
<g><path style="opacity:1" fill="#dbdbd8" d="M 4.5,20.5 C 4.08824,22.9726 5.08824,24.3059 7.5,24.5C 7.5,25.8333 6.83333,26.5 5.5,26.5C 4.24848,24.9991 3.24848,23.3325 2.5,21.5C 3.16667,21.1667 3.83333,20.8333 4.5,20.5 Z"/></g>
<g><path style="opacity:1" fill="#b2a495" d="M 9.5,20.5 C 10.5,20.5 11.5,20.5 12.5,20.5C 12.5,21.1667 12.5,21.8333 12.5,22.5C 11.8333,22.5 11.5,22.8333 11.5,23.5C 11.5,24.1667 11.1667,24.5 10.5,24.5C 10.5674,23.0413 10.2341,21.7079 9.5,20.5 Z"/></g>
<g><path style="opacity:1" fill="#b1a18f" d="M 11.5,18.5 C 12.1667,18.5 12.8333,18.5 13.5,18.5C 13.5,19.1667 13.5,19.8333 13.5,20.5C 13.6716,21.4916 13.3382,22.1583 12.5,22.5C 12.5,21.8333 12.5,21.1667 12.5,20.5C 12.1667,19.8333 11.8333,19.1667 11.5,18.5 Z"/></g>
<g><path style="opacity:1" fill="#484038" d="M 15.5,19.5 C 16.1667,19.8333 16.8333,20.1667 17.5,20.5C 17.1667,21.5 16.5,22.1667 15.5,22.5C 15.1667,21.8333 14.8333,21.1667 14.5,20.5C 14.5,19.8333 14.8333,19.5 15.5,19.5 Z"/></g>
<g><path style="opacity:1" fill="#81817e" d="M 24.5,18.5 C 25.3382,18.8417 25.6716,19.5084 25.5,20.5C 25.5,20.8333 25.5,21.1667 25.5,21.5C 25.5,22.1667 25.1667,22.5 24.5,22.5C 24.5,21.8333 24.1667,21.5 23.5,21.5C 24.1098,20.609 24.4431,19.609 24.5,18.5 Z"/></g>
<g><path style="opacity:0.635" fill="#603010" d="M 30.5,10.5 C 30.8333,10.5 31.1667,10.5 31.5,10.5C 31.5,13.8333 31.5,17.1667 31.5,20.5C 30.8333,21.1667 30.1667,21.8333 29.5,22.5C 29.5,21.8333 29.5,21.1667 29.5,20.5C 29.5,20.1667 29.5,19.8333 29.5,19.5C 30.4767,16.7131 30.81,13.7131 30.5,10.5 Z"/></g>
<g><path style="opacity:1" fill="#8b8a87" d="M 4.5,20.5 C 5.16667,20.5 5.83333,20.5 6.5,20.5C 7.23411,21.7079 7.56745,23.0413 7.5,24.5C 5.08824,24.3059 4.08824,22.9726 4.5,20.5 Z"/></g>
<g><path style="opacity:1" fill="#6c6256" d="M 13.5,20.5 C 13.8333,20.5 14.1667,20.5 14.5,20.5C 14.8333,21.1667 15.1667,21.8333 15.5,22.5C 15.5,23.1667 15.5,23.8333 15.5,24.5C 14.8333,24.5 14.1667,24.5 13.5,24.5C 13.1583,23.6618 12.4916,23.3284 11.5,23.5C 11.5,22.8333 11.8333,22.5 12.5,22.5C 13.3382,22.1583 13.6716,21.4916 13.5,20.5 Z"/></g>
<g><path style="opacity:1" fill="#b5b0aa" d="M 20.5,18.5 C 20.5,19.8333 20.5,21.1667 20.5,22.5C 20.5,23.1667 20.5,23.8333 20.5,24.5C 19.3263,23.4863 18.6596,22.153 18.5,20.5C 19.1667,19.8333 19.8333,19.1667 20.5,18.5 Z"/></g>
<g><path style="opacity:1" fill="#362f27" d="M 17.5,20.5 C 17.8333,20.5 18.1667,20.5 18.5,20.5C 18.6596,22.153 19.3263,23.4863 20.5,24.5C 20.8333,24.5 21.1667,24.5 21.5,24.5C 20.4583,25.7911 19.2917,25.7911 18,24.5C 17.5357,25.0944 17.369,25.7611 17.5,26.5C 16.8333,26.5 16.1667,26.5 15.5,26.5C 15.5,25.8333 15.5,25.1667 15.5,24.5C 15.5,23.8333 15.5,23.1667 15.5,22.5C 16.5,22.1667 17.1667,21.5 17.5,20.5 Z"/></g>
<g><path style="opacity:1" fill="#e3e2dd" d="M 22.5,20.5 C 22.5,21.1667 22.8333,21.5 23.5,21.5C 24.1667,21.5 24.5,21.8333 24.5,22.5C 23.5,23.8333 22.5,23.8333 21.5,22.5C 21.3284,21.5084 21.6618,20.8417 22.5,20.5 Z"/></g>
<g><path style="opacity:1" fill="#8d5f37" d="M 1.5,20.5 C 1.83333,20.5 2.16667,20.5 2.5,20.5C 2.5,20.8333 2.5,21.1667 2.5,21.5C 3.24848,23.3325 4.24848,24.9991 5.5,26.5C 5.5,26.8333 5.5,27.1667 5.5,27.5C 3.46888,26.4613 2.13554,24.7946 1.5,22.5C 1.5,21.8333 1.5,21.1667 1.5,20.5 Z"/></g>
<g><path style="opacity:1" fill="#d1cec8" d="M 8.5,18.5 C 8.83333,18.5 9.16667,18.5 9.5,18.5C 9.5,19.1667 9.5,19.8333 9.5,20.5C 10.2341,21.7079 10.5674,23.0413 10.5,24.5C 10.1667,24.5 9.83333,24.5 9.5,24.5C 9.16667,24.5 8.83333,24.5 8.5,24.5C 8.5,22.5 8.5,20.5 8.5,18.5 Z"/></g>
<g><path style="opacity:1" fill="#dbd9d4" d="M 25.5,21.5 C 26.1667,22.1667 26.8333,22.8333 27.5,23.5C 27.5,23.8333 27.5,24.1667 27.5,24.5C 26.5,25.1667 25.5,25.8333 24.5,26.5C 23.8333,26.1667 23.1667,25.8333 22.5,25.5C 22.5,24.8333 22.1667,24.5 21.5,24.5C 21.1667,24.5 20.8333,24.5 20.5,24.5C 20.5,23.8333 20.5,23.1667 20.5,22.5C 20.8333,22.5 21.1667,22.5 21.5,22.5C 22.5,23.8333 23.5,23.8333 24.5,22.5C 25.1667,22.5 25.5,22.1667 25.5,21.5 Z"/></g>
<g><path style="opacity:1" fill="#8d5d35" d="M 28.5,20.5 C 28.8333,20.5 29.1667,20.5 29.5,20.5C 29.5,21.1667 29.5,21.8333 29.5,22.5C 29.6716,23.4916 29.3382,24.1583 28.5,24.5C 28.1667,24.5 27.8333,24.5 27.5,24.5C 27.5,24.1667 27.5,23.8333 27.5,23.5C 28.1098,22.609 28.4431,21.609 28.5,20.5 Z"/></g>
<g><path style="opacity:1" fill="#2b221a" d="M 11.5,23.5 C 12.4916,23.3284 13.1583,23.6618 13.5,24.5C 12.5,25.8333 11.5,25.8333 10.5,24.5C 11.1667,24.5 11.5,24.1667 11.5,23.5 Z"/></g>
<g><path style="opacity:1" fill="#b5ada5" d="M 7.5,24.5 C 7.83333,24.5 8.16667,24.5 8.5,24.5C 8.73731,25.791 8.40397,26.791 7.5,27.5C 6.83333,27.5 6.16667,27.5 5.5,27.5C 5.5,27.1667 5.5,26.8333 5.5,26.5C 6.83333,26.5 7.5,25.8333 7.5,24.5 Z"/></g>
<g><path style="opacity:1" fill="#787972" d="M 8.5,24.5 C 8.83333,24.5 9.16667,24.5 9.5,24.5C 9.5,25.1667 9.5,25.8333 9.5,26.5C 9.5,27.1667 9.83333,27.5 10.5,27.5C 10.5,28.1667 10.5,28.8333 10.5,29.5C 9.29049,29.0679 8.29049,28.4013 7.5,27.5C 8.40397,26.791 8.73731,25.791 8.5,24.5 Z"/></g>
<g><path style="opacity:1" fill="#585245" d="M 9.5,24.5 C 9.83333,24.5 10.1667,24.5 10.5,24.5C 11.5,25.8333 12.5,25.8333 13.5,24.5C 14.1667,24.5 14.8333,24.5 15.5,24.5C 15.5,25.1667 15.5,25.8333 15.5,26.5C 13.5,26.5 11.5,26.5 9.5,26.5C 9.5,25.8333 9.5,25.1667 9.5,24.5 Z"/></g>
<g><path style="opacity:1" fill="#696b5e" d="M 21.5,24.5 C 22.1667,24.5 22.5,24.8333 22.5,25.5C 22.5,26.1667 22.1667,26.5 21.5,26.5C 20.1667,26.5 18.8333,26.5 17.5,26.5C 17.369,25.7611 17.5357,25.0944 18,24.5C 19.2917,25.7911 20.4583,25.7911 21.5,24.5 Z"/></g>
<g><path style="opacity:0.647" fill="#714724" d="M 27.5,24.5 C 27.8333,24.5 28.1667,24.5 28.5,24.5C 27.8333,25.8333 26.8333,26.8333 25.5,27.5C 25.1667,27.5 24.8333,27.5 24.5,27.5C 24.5,27.1667 24.5,26.8333 24.5,26.5C 25.5,25.8333 26.5,25.1667 27.5,24.5 Z"/></g>
<g><path style="opacity:1" fill="#acc1b6" d="M 9.5,26.5 C 11.5,26.5 13.5,26.5 15.5,26.5C 16.1667,26.5 16.8333,26.5 17.5,26.5C 18.8333,26.5 20.1667,26.5 21.5,26.5C 20.8902,27.391 20.5569,28.391 20.5,29.5C 16.9913,29.5424 13.658,28.8758 10.5,27.5C 9.83333,27.5 9.5,27.1667 9.5,26.5 Z"/></g>
<g><path style="opacity:0.933" fill="#432c19" d="M 5.5,27.5 C 6.16667,27.5 6.83333,27.5 7.5,27.5C 8.29049,28.4013 9.29049,29.0679 10.5,29.5C 10.5,29.8333 10.5,30.1667 10.5,30.5C 8.06725,30.7271 6.40058,29.7271 5.5,27.5 Z"/></g>
<g><path style="opacity:1" fill="#747974" d="M 10.5,27.5 C 13.658,28.8758 16.9913,29.5424 20.5,29.5C 20.5,29.8333 20.5,30.1667 20.5,30.5C 20.5,30.8333 20.5,31.1667 20.5,31.5C 17.1667,31.5 13.8333,31.5 10.5,31.5C 10.5,31.1667 10.5,30.8333 10.5,30.5C 10.5,30.1667 10.5,29.8333 10.5,29.5C 10.5,28.8333 10.5,28.1667 10.5,27.5 Z"/></g>
<g><path style="opacity:1" fill="#7e7d77" d="M 22.5,25.5 C 23.1667,25.8333 23.8333,26.1667 24.5,26.5C 24.5,26.8333 24.5,27.1667 24.5,27.5C 23.1667,28.1667 21.8333,28.8333 20.5,29.5C 20.5569,28.391 20.8902,27.391 21.5,26.5C 22.1667,26.5 22.5,26.1667 22.5,25.5 Z"/></g>
<g><path style="opacity:0.882" fill="#3b2515" d="M 24.5,27.5 C 24.8333,27.5 25.1667,27.5 25.5,27.5C 24.3406,29.2503 22.674,30.2503 20.5,30.5C 20.5,30.1667 20.5,29.8333 20.5,29.5C 21.8333,28.8333 23.1667,28.1667 24.5,27.5 Z"/></g>
</svg>
