<svg width="512" height="512" viewBox="0 0 512 512" fill="none" xmlns="http://www.w3.org/2000/svg">
<path d="M28.4459 475.11H483.555C499.265 475.11 512 462.375 512 446.665C512 430.956 499.265 418.221 483.555 418.221H28.4448C12.7349 418.221 3.05176e-05 430.957 3.05176e-05 446.665C3.05176e-05 462.374 12.736 475.11 28.4459 475.11ZM93.0011 284.445H483.555C499.265 284.445 512 271.709 512 256C512 240.29 499.265 227.555 483.555 227.555H93C77.2901 227.555 64.5552 240.29 64.5552 256C64.5552 271.709 77.2912 284.445 93.0011 284.445ZM28.4459 93.778H483.555C499.265 93.778 512 81.0431 512 65.3332C512 49.6233 499.265 36.8884 483.555 36.8884H28.4448C12.7349 36.8884 3.05176e-05 49.6233 3.05176e-05 65.3332C3.05176e-05 81.0431 12.736 93.778 28.4459 93.778Z" fill="rgb(107,114,128)"/>
<path fill-rule="evenodd" clip-rule="evenodd" d="M327.2 256.467C327.2 247.041 319.558 239.4 310.133 239.4L78.2694 239.4L151.535 166.135C158.2 159.47 158.2 148.664 151.535 141.999C144.87 135.334 134.064 135.334 127.399 141.999L24.9989 244.399C18.3337 251.064 18.3337 261.87 24.9989 268.535L127.399 370.935C134.064 377.6 144.87 377.6 151.535 370.935C158.2 364.27 158.2 353.464 151.535 346.799L78.2694 273.533H310.133C319.558 273.533 327.2 265.892 327.2 256.467Z" fill="rgb(107,114,128)" stroke="rgb(107,114,128)" stroke-width="15"/>
</svg>