<svg height="512" viewBox="0 0 128 128" width="512" xmlns="http://www.w3.org/2000/svg"><g id="Filled_outline" data-name="Filled outline"><g id="Color"><rect fill="#7cb342" height="125" rx="12" width="125" x="1.5" y="1.5"/><path d="m11.5 104.025v-80.05a12.475 12.475 0 0 0 12.475-12.475h80.05a12.475 12.475 0 0 0 12.475 12.475v80.05a12.475 12.475 0 0 0 -12.475 12.475h-80.05a12.475 12.475 0 0 0 -12.475-12.475z" fill="#8bc34a"/><path d="m41.5 40.5h45v21h-45z" fill="#37474f"/><g fill="#ffb300"><path d="m60 40.5h8v21h-8z"/><path d="m78.5 40.5h8v21h-8z"/><path d="m41.5 40.5h8v21h-8z" transform="matrix(-1 0 0 -1 91 102)"/></g><path d="m41.5 58.5h8v3h-8z" fill="#ffa000"/><path d="m60 58.5h8v3h-8z" fill="#ffa000"/><path d="m78.5 58.5h8v3h-8z" fill="#ffa000"/><rect fill="#ffb300" height="9" rx="3" width="52" x="38" y="61.5"/><path d="m41.5 40.5h8v3h-8z" fill="#ffa000"/><path d="m60 40.5h8v3h-8z" fill="#ffa000"/><path d="m78.5 40.5h8v3h-8z" fill="#ffa000"/><path d="m61.2 19.14-21.6 11.382a3 3 0 0 0 -1.6 2.654v4.324a3 3 0 0 0 3 3h46a3 3 0 0 0 3-3v-4.324a3 3 0 0 0 -1.6-2.654l-21.6-11.382a6 6 0 0 0 -5.6 0z" fill="#ffb300"/><circle cx="64" cy="29" fill="#fff" r="2.5"/><circle cx="41" cy="94" fill="#ffb300" r="14"/><path d="m98 84h-31a3 3 0 0 0 0 6h31a3 3 0 0 0 0-6z" fill="#fff"/><path d="m98 98h-31a3 3 0 0 0 0 6h31a3 3 0 0 0 0-6z" fill="#fff"/></g><g id="Outline"><path d="m114.5 0h-101a13.515 13.515 0 0 0 -13.5 13.5v101a13.515 13.515 0 0 0 13.5 13.5h101a13.515 13.515 0 0 0 13.5-13.5v-101a13.515 13.515 0 0 0 -13.5-13.5zm10.5 114.5a10.512 10.512 0 0 1 -10.5 10.5h-101a10.512 10.512 0 0 1 -10.5-10.5v-101a10.512 10.512 0 0 1 10.5-10.5h101a10.512 10.512 0 0 1 10.5 10.5z"/><path d="m116.5 22.475a10.988 10.988 0 0 1 -10.976-10.975 1.5 1.5 0 0 0 -1.5-1.5h-80.048a1.5 1.5 0 0 0 -1.5 1.5 10.988 10.988 0 0 1 -10.976 10.975 1.5 1.5 0 0 0 -1.5 1.5v80.05a1.5 1.5 0 0 0 1.5 1.5 10.988 10.988 0 0 1 10.976 10.975 1.5 1.5 0 0 0 1.5 1.5h80.048a1.5 1.5 0 0 0 1.5-1.5 10.988 10.988 0 0 1 10.976-10.975 1.5 1.5 0 0 0 1.5-1.5v-80.05a1.5 1.5 0 0 0 -1.5-1.5zm-1.5 80.13a14 14 0 0 0 -12.4 12.395h-77.2a14 14 0 0 0 -12.4-12.395v-77.205a14 14 0 0 0 12.4-12.4h77.2a14 14 0 0 0 12.4 12.4z"/><path d="m41 72h46a4.505 4.505 0 0 0 4.5-4.5v-3a4.5 4.5 0 0 0 -3.5-4.379v-18.242a4.5 4.5 0 0 0 3.5-4.379v-4.324a4.49 4.49 0 0 0 -2.4-3.976l-21.6-11.387a7.493 7.493 0 0 0 -6.992 0l-21.608 11.387a4.49 4.49 0 0 0 -2.4 3.981v4.319a4.5 4.5 0 0 0 3.5 4.379v18.242a4.5 4.5 0 0 0 -3.5 4.379v3a4.505 4.505 0 0 0 4.5 4.5zm-1.5-34.5v-4.324a1.5 1.5 0 0 1 .8-1.326l21.6-11.383a4.494 4.494 0 0 1 4.2 0l21.6 11.383a1.5 1.5 0 0 1 .8 1.326v4.324a1.5 1.5 0 0 1 -1.5 1.5h-46a1.5 1.5 0 0 1 -1.5-1.5zm45.5 4.5v18h-5v-18zm-8 0v18h-7.5v-18zm-10.5 0v18h-5v-18zm-8 0v18h-7.5v-18zm-10.5 0v18h-5v-18zm-8.5 22.5a1.5 1.5 0 0 1 1.5-1.5h46a1.5 1.5 0 0 1 1.5 1.5v3a1.5 1.5 0 0 1 -1.5 1.5h-46a1.5 1.5 0 0 1 -1.5-1.5z"/><path d="m64 33a4 4 0 1 0 -4-4 4 4 0 0 0 4 4zm0-5a1 1 0 1 1 -1 1 1 1 0 0 1 1-1z"/><path d="m41 78.5a15.5 15.5 0 1 0 15.5 15.5 15.517 15.517 0 0 0 -15.5-15.5zm0 28a12.5 12.5 0 1 1 12.5-12.5 12.514 12.514 0 0 1 -12.5 12.5z"/><path d="m40.478 90.274h1.567a.591.591 0 0 1 .591.59 1.5 1.5 0 0 0 3 0 3.583 3.583 0 0 0 -3.136-3.544v-.636a1.5 1.5 0 0 0 -3 0v.72a4.106 4.106 0 0 0 .978 8.1h1.044a1.113 1.113 0 1 1 0 2.226h-1.567a.591.591 0 0 1 -.591-.59 1.5 1.5 0 0 0 -3 0 3.583 3.583 0 0 0 3.136 3.54v.636a1.5 1.5 0 0 0 3 0v-.72a4.106 4.106 0 0 0 -.978-8.1h-1.044a1.113 1.113 0 1 1 0-2.226z"/><path d="m98 82.5h-31a4.5 4.5 0 0 0 0 9h31a4.5 4.5 0 0 0 0-9zm0 6h-31a1.5 1.5 0 0 1 0-3h31a1.5 1.5 0 0 1 0 3z"/><path d="m98 96.5h-31a4.5 4.5 0 0 0 0 9h31a4.5 4.5 0 0 0 0-9zm0 6h-31a1.5 1.5 0 0 1 0-3h31a1.5 1.5 0 0 1 0 3z"/></g></g></svg>