<svg width="514" height="346" viewBox="0 0 514 346" fill="none" xmlns="http://www.w3.org/2000/svg">
<path d="M510.009 261.774H455.964C459.909 245.596 462.007 228.709 462.007 211.318C462.007 176.766 453.729 144.136 439.066 115.327H477.4C479.612 115.327 481.39 113.542 481.39 111.323C481.39 109.103 479.612 107.318 477.4 107.318H434.779C398.612 43.2476 330.041 0 251.413 0C199.124 0 151.281 19.1296 114.453 50.7988H49.5985C47.3865 50.7988 45.6078 52.5836 45.6078 54.8032C45.6078 57.0228 47.3865 58.8076 49.5985 58.8076H105.65C101.181 63.1095 96.8938 67.6173 92.8119 72.3082H3.99068C1.7787 72.3082 0 74.093 0 76.3126C0 78.5322 1.7787 80.317 3.99068 80.317H86.1531C57.7623 116.334 40.819 161.847 40.819 211.318C40.819 239.006 46.1323 265.458 55.7784 289.69H45.2658C43.0538 289.69 41.2751 291.475 41.2751 293.695C41.2751 295.914 43.0538 297.699 45.2658 297.699H59.1533C60.6128 300.949 62.1406 304.152 63.7369 307.31H16.5328C14.3209 307.31 12.5421 309.095 12.5421 311.314C12.5421 313.534 14.3209 315.319 16.5328 315.319H68.0469C72.9725 324.037 78.491 332.366 84.5569 340.26H418.269C429.603 325.524 439.044 309.209 446.204 291.75H485.381C487.593 291.75 489.372 289.965 489.372 287.745C489.372 285.526 487.593 283.741 485.381 283.741H449.305C450.97 279.165 452.475 274.497 453.843 269.783H510.009C512.221 269.783 514 267.998 514 265.778C514 263.559 512.221 261.774 510.009 261.774Z" fill="#F3F4F6"/>
<path d="M339.915 340.238H314.397C314.397 338.385 315.88 336.898 317.727 336.898H336.563C338.433 336.898 339.915 338.408 339.915 340.238Z" fill="#E4E6E9"/>
<path d="M333.872 336.898H320.463L324.819 212.12L327.76 214.065L333.872 336.898Z" fill="#E4E6E9"/>
<path d="M338.022 340.238H312.505C312.505 338.385 313.987 336.898 315.834 336.898H334.67C336.54 336.898 338.022 338.408 338.022 340.238Z" fill="#E4E6E9"/>
<path d="M325.275 213.219L389.468 250.402L388.761 246.741C388.624 246.009 388.236 245.368 387.643 244.934L345.707 212.349C344.932 211.754 343.928 211.571 342.993 211.846L334.579 214.363C333.781 214.592 332.937 214.5 332.207 214.088L326.62 210.839L325.275 213.219Z" fill="#E4E6E9"/>
<path d="M323.907 210.861L259.714 248.045L263.225 249.258C263.932 249.51 264.685 249.487 265.369 249.189L314.443 229.03C315.355 228.664 316.017 227.863 316.245 226.925L318.274 218.367C318.457 217.543 318.981 216.857 319.711 216.445L325.298 213.218L323.907 210.861Z" fill="#E4E6E9"/>
<path d="M326.62 210.861V136.471L323.815 138.919C323.268 139.4 322.903 140.063 322.789 140.796L315.651 193.517C315.515 194.478 315.857 195.462 316.564 196.125L322.949 202.166C323.542 202.738 323.884 203.539 323.884 204.363V210.839H326.62V210.861Z" fill="#E4E6E9"/>
<path d="M331.432 336.897H319.118L323.473 212.12H327.076L331.432 336.897Z" fill="#E4E6E9"/>
<path d="M328.343 212.862C328.742 211.165 327.695 209.464 326.004 209.063C324.312 208.662 322.617 209.713 322.218 211.41C321.818 213.108 322.866 214.809 324.557 215.209C326.249 215.61 327.944 214.559 328.343 212.862Z" fill="#E4E6E9"/>
<path d="M325.047 214.82C326.634 214.82 327.92 213.529 327.92 211.937C327.92 210.344 326.634 209.053 325.047 209.053C323.46 209.053 322.174 210.344 322.174 211.937C322.174 213.529 323.46 214.82 325.047 214.82Z" fill="#E4E6E9"/>
<path d="M260.854 248.434L322.174 211.937L322.128 211.891L259.714 248.045L260.854 248.434Z" fill="#E4E6E9"/>
<path d="M331.432 336.097H319.141V336.898H331.432V336.097Z" fill="#E4E6E9"/>
<path d="M325.731 137.272L326.575 209.305L326.62 209.283V136.471L325.731 137.272Z" fill="#E4E6E9"/>
<path d="M389.24 249.212L327.054 214.179V214.248L389.468 250.402L389.24 249.212Z" fill="#E4E6E9"/>
<path d="M423.742 340.238H382.9C382.9 337.286 385.295 334.883 388.236 334.883H418.406C421.348 334.883 423.742 337.286 423.742 340.238Z" fill="#E4E6E9"/>
<path d="M414.073 334.884H392.569L399.547 135.121L404.245 138.233L414.073 334.884Z" fill="#E4E6E9"/>
<path d="M420.709 340.238H379.867C379.867 337.286 382.262 334.883 385.204 334.883H415.373C418.315 334.883 420.709 337.286 420.709 340.238Z" fill="#E4E6E9"/>
<path d="M400.277 136.882L503.054 196.422L501.8 189.878C501.663 189.146 501.276 188.505 500.683 188.047L432.271 134.915C431.496 134.32 430.492 134.137 429.557 134.411L414.461 138.942C413.663 139.171 412.819 139.079 412.09 138.667L402.466 133.084L400.277 136.882Z" fill="#E4E6E9"/>
<path d="M398.111 133.084L295.333 192.624L301.605 194.798C302.289 195.049 303.064 195.026 303.725 194.729L385.226 161.252L389.536 143.084L400.277 136.86L398.111 133.084Z" fill="#E4E6E9"/>
<path d="M402.466 133.084V14.0039L397.449 18.3515C396.902 18.8321 396.537 19.4957 396.423 20.2279L384.77 106.243C384.634 107.204 384.976 108.188 385.683 108.851L397.13 119.72C397.723 120.292 398.088 121.093 398.088 121.917V133.061H402.466V133.084Z" fill="#E4E6E9"/>
<path d="M410.151 334.884H390.426L397.404 135.121H403.15L410.151 334.884Z" fill="#E4E6E9"/>
<path d="M404.976 137.054C406.046 134.462 404.819 131.49 402.236 130.417C399.653 129.343 396.691 130.574 395.621 133.166C394.551 135.758 395.778 138.73 398.361 139.803C400.944 140.877 403.906 139.646 404.976 137.054Z" fill="#E4E6E9"/>
<path d="M404.191 136.571C405.164 134.212 404.048 131.508 401.698 130.531C399.347 129.554 396.653 130.674 395.679 133.033C394.705 135.391 395.821 138.095 398.172 139.072C400.522 140.049 403.217 138.929 404.191 136.571Z" fill="#E4E6E9"/>
<path d="M297.158 193.264L395.329 134.8L395.237 134.754L295.333 192.624L297.158 193.264Z" fill="#E4E6E9"/>
<path d="M410.151 333.602H390.472V334.906H410.151V333.602Z" fill="#E4E6E9"/>
<path d="M401.007 15.2624L402.352 130.635L402.466 130.589V14.0039L401.007 15.2624Z" fill="#E4E6E9"/>
<path d="M502.689 194.523L403.15 138.415L403.128 138.529L503.054 196.422L502.689 194.523Z" fill="#E4E6E9"/>
<path d="M96.5974 243.514C83.4395 243.514 72.6761 232.714 72.6761 219.511V164.296C72.6761 151.092 83.4395 140.292 96.5974 140.292C109.755 140.292 120.519 151.092 120.519 164.296V219.534C120.519 232.714 109.755 243.514 96.5974 243.514Z" fill="#E4E6E9"/>
<path d="M97.92 340.376H95.3203V178.689C95.3203 177.957 95.9132 177.385 96.6201 177.385C97.3499 177.385 97.92 177.98 97.92 178.689V340.376Z" fill="#D7DADF"/>
<path d="M97.92 200.587L90.6683 187.979C90.3035 187.361 89.5053 187.132 88.8896 187.498C88.2739 187.864 88.0459 188.665 88.4108 189.283L95.6624 201.891L97.92 200.587Z" fill="#D7DADF"/>
<path d="M97.5551 215.666L104.807 203.058C105.172 202.44 104.944 201.64 104.328 201.273C103.712 200.907 102.914 201.136 102.549 201.754L95.2975 214.362L97.5551 215.666Z" fill="#D7DADF"/>
<path d="M157.666 217.245C140.974 217.245 127.291 203.539 127.291 186.766V116.632C127.291 99.882 140.951 86.1526 157.666 86.1526C174.359 86.1526 188.041 99.8591 188.041 116.632V186.766C188.041 203.539 174.359 217.245 157.666 217.245Z" fill="#E4E6E9"/>
<path d="M159.331 340.216H156.024V134.892C156.024 133.977 156.777 133.222 157.689 133.222C158.601 133.222 159.354 133.977 159.354 134.892V340.216H159.331Z" fill="#D7DADF"/>
<path d="M159.331 162.739L150.118 146.721C149.662 145.921 148.659 145.646 147.861 146.104C147.062 146.561 146.789 147.568 147.245 148.369L156.458 164.387L159.331 162.739Z" fill="#D7DADF"/>
<path d="M158.875 181.869L168.088 165.851C168.544 165.05 168.27 164.043 167.472 163.586C166.674 163.128 165.67 163.403 165.214 164.204L156.001 180.221L158.875 181.869Z" fill="#D7DADF"/>
<path d="M111.351 331.291C112.742 329.986 113.381 328.476 112.834 327.423C112.15 326.119 109.869 325.913 107.452 326.828C107.566 326.508 107.703 326.188 107.794 325.844C109.094 321.703 108.341 317.767 106.152 317.081C104.009 316.394 101.249 319.048 99.9038 323.03C98.7865 318.476 95.9588 315.273 93.5188 315.845C91.2156 316.394 90.0982 320.101 90.8279 324.334C87.4757 322.847 84.2148 322.961 83.1886 324.769C82.1168 326.623 83.7815 329.643 86.9512 331.84C85.4462 332.343 84.42 333.281 84.2604 334.425C84.0779 335.844 85.3094 337.263 87.2477 338.132C87.1337 338.407 87.1109 338.682 87.1793 338.956C87.3845 339.826 88.4563 340.352 89.8929 340.398H90.0982C90.0982 340.398 90.0982 340.398 90.121 340.398H108.068V340.375C108.41 340.329 108.683 340.192 108.775 339.94C108.843 339.78 108.797 339.597 108.706 339.414C109.641 339.322 110.371 338.956 110.599 338.315C110.781 337.835 110.644 337.263 110.257 336.714C112.72 336.553 114.59 335.478 114.658 334.082C114.704 332.892 113.335 331.794 111.351 331.291Z" fill="#DDDFE2"/>
<path d="M149.115 323.648C151.669 321.222 152.855 318.477 151.828 316.532C150.574 314.129 146.401 313.763 141.932 315.456C142.16 314.861 142.365 314.266 142.57 313.648C144.942 306.029 143.596 298.798 139.537 297.516C135.592 296.281 130.53 301.132 128.067 308.454C126.037 300.079 120.815 294.176 116.323 295.228C112.104 296.235 110.029 303.031 111.397 310.857C105.217 308.111 99.2427 308.34 97.3499 311.635C95.3888 315.044 98.4445 320.605 104.282 324.655C101.523 325.593 99.6075 327.286 99.3567 329.414C99.0374 332.046 101.272 334.632 104.83 336.21C104.624 336.714 104.579 337.24 104.693 337.721C105.058 339.3 107.064 340.283 109.664 340.375H110.052H110.075H143.049V340.352C143.687 340.261 144.166 339.986 144.326 339.551C144.44 339.254 144.394 338.933 144.212 338.59C145.945 338.43 147.245 337.744 147.678 336.577C148.02 335.684 147.769 334.654 147.062 333.625C151.578 333.327 155.044 331.336 155.158 328.797C155.295 326.6 152.763 324.563 149.115 323.648Z" fill="#EAECEF"/>
<path d="M373.687 325.364C371.407 323.213 370.358 320.764 371.27 319.025C372.388 316.874 376.105 316.554 380.095 318.064C379.89 317.538 379.708 317.012 379.525 316.463C377.404 309.667 378.613 303.237 382.239 302.115C385.751 301.017 390.266 305.342 392.455 311.84C394.279 304.381 398.931 299.118 402.922 300.056C406.685 300.948 408.532 307.012 407.323 313.968C412.819 311.52 418.132 311.726 419.842 314.655C421.598 317.698 418.862 322.641 413.663 326.256C416.125 327.08 417.813 328.59 418.064 330.512C418.337 332.846 416.353 335.157 413.184 336.576C413.366 337.034 413.412 337.491 413.298 337.926C412.978 339.345 411.2 340.214 408.874 340.306H408.532H408.509H379.138V340.283C378.567 340.214 378.134 339.963 377.997 339.574C377.906 339.322 377.952 339.025 378.089 338.727C376.538 338.567 375.375 337.972 374.987 336.942C374.691 336.141 374.919 335.226 375.535 334.311C371.521 334.036 368.442 332.274 368.328 330.009C368.192 327.995 370.426 326.188 373.687 325.364Z" fill="#EAEAEA"/>
<path d="M407.62 334.289C406.708 333.419 406.274 332.435 406.639 331.726C407.095 330.856 408.6 330.719 410.197 331.337C410.105 331.131 410.037 330.902 409.969 330.696C409.102 327.95 409.604 325.364 411.063 324.907C412.477 324.449 414.301 326.211 415.191 328.842C415.92 325.822 417.813 323.694 419.409 324.083C420.937 324.449 421.667 326.898 421.188 329.712C423.423 328.728 425.566 328.797 426.251 329.987C426.957 331.222 425.863 333.213 423.765 334.677C424.768 335.021 425.452 335.616 425.544 336.394C425.658 337.332 424.86 338.27 423.583 338.842C423.651 339.025 423.674 339.208 423.628 339.391C423.491 339.963 422.784 340.307 421.827 340.352H421.69H409.832C409.604 340.329 409.421 340.215 409.376 340.078C409.33 339.963 409.353 339.849 409.421 339.734C408.806 339.666 408.327 339.437 408.167 339.002C408.053 338.682 408.144 338.316 408.395 337.95C406.776 337.835 405.522 337.126 405.476 336.211C405.408 335.364 406.32 334.632 407.62 334.289Z" fill="#DDDFE2"/>
<path d="M262.997 326.234C260.854 324.198 259.873 321.887 260.717 320.262C261.766 318.249 265.278 317.928 269.018 319.347C268.835 318.866 268.653 318.34 268.493 317.837C266.486 311.43 267.626 305.366 271.047 304.313C274.376 303.261 278.618 307.357 280.67 313.489C282.381 306.464 286.759 301.499 290.522 302.391C294.056 303.238 295.789 308.958 294.649 315.503C299.848 313.214 304.842 313.397 306.439 316.166C308.081 319.027 305.527 323.695 300.624 327.104C302.95 327.882 304.546 329.324 304.774 331.108C305.048 333.305 303.155 335.479 300.168 336.829C300.327 337.264 300.373 337.676 300.282 338.11C299.962 339.438 298.298 340.261 296.109 340.353H295.789H295.767H268.083V340.33C267.535 340.261 267.148 340.032 267.011 339.666C266.92 339.415 266.965 339.14 267.102 338.865C265.643 338.728 264.548 338.156 264.183 337.172C263.909 336.417 264.115 335.548 264.685 334.701C260.899 334.449 257.98 332.779 257.889 330.651C257.821 328.729 259.942 327.012 262.997 326.234Z" fill="#F2F2F2"/>
<path d="M294.125 332.344C292.916 331.2 292.346 329.873 292.825 328.957C293.418 327.813 295.402 327.63 297.523 328.454C297.409 328.179 297.317 327.882 297.226 327.584C296.086 323.946 296.747 320.537 298.663 319.919C300.533 319.324 302.95 321.635 304.113 325.113C305.071 321.132 307.556 318.317 309.7 318.82C311.707 319.301 312.687 322.527 312.049 326.257C314.99 324.953 317.818 325.067 318.73 326.623C319.665 328.248 318.206 330.879 315.424 332.802C316.746 333.236 317.636 334.06 317.772 335.067C317.932 336.303 316.86 337.538 315.173 338.293C315.264 338.545 315.287 338.774 315.241 339.026C315.059 339.781 314.124 340.238 312.87 340.284H312.687C312.687 340.284 312.687 340.284 312.664 340.284H296.975V340.261C296.679 340.215 296.451 340.101 296.36 339.895C296.314 339.758 296.337 339.598 296.405 339.437C295.584 339.346 294.968 339.025 294.763 338.476C294.604 338.042 294.718 337.561 295.06 337.081C292.916 336.943 291.274 336.005 291.206 334.769C291.183 333.74 292.392 332.779 294.125 332.344Z" fill="#DDDFE2"/>
<path d="M309.882 142.673C309.677 142.673 309.495 142.696 309.312 142.764C309.312 142.673 309.312 142.581 309.312 142.49C309.312 140.293 307.534 138.508 305.344 138.508C303.52 138.508 301.992 139.721 301.536 141.391C301.308 141.323 301.08 141.3 300.829 141.3C299.415 141.3 298.275 142.444 298.275 143.863C298.275 145.281 299.415 146.425 300.829 146.425C300.875 146.425 300.921 146.425 300.966 146.425H309.837C310.886 146.425 311.707 145.579 311.707 144.549C311.775 143.519 310.931 142.673 309.882 142.673Z" fill="#F2F2F2"/>
<path d="M240.809 99.3101C239.738 99.3101 238.734 99.6076 237.891 100.111C237.001 96.2668 233.581 93.4065 229.476 93.4065C229.111 93.4065 228.769 93.4294 228.404 93.4751C226.489 89.1961 222.224 86.2214 217.253 86.2214C210.503 86.2214 205.03 91.7132 205.03 98.4864C205.03 98.555 205.03 98.6237 205.03 98.6923C204.209 98.3033 203.297 98.0974 202.339 98.0974C198.85 98.0974 196.045 100.935 196.045 104.413C196.045 107.891 198.873 110.728 202.339 110.728H240.809C243.956 110.728 246.51 108.166 246.51 105.008C246.51 101.873 243.956 99.3101 240.809 99.3101Z" fill="#F0F2F5"/>
<path d="M182.203 235.482C182.91 235.482 183.572 235.688 184.119 236.008C184.712 233.491 186.947 231.592 189.66 231.592C189.888 231.592 190.139 231.615 190.367 231.638C191.621 228.823 194.426 226.878 197.71 226.878C202.157 226.878 205.737 230.494 205.737 234.933C205.737 234.979 205.737 235.025 205.737 235.07C206.284 234.819 206.877 234.681 207.516 234.681C209.796 234.681 211.666 236.535 211.666 238.846C211.666 241.134 209.819 243.01 207.516 243.01H182.203C180.128 243.01 178.464 241.317 178.464 239.258C178.464 237.198 180.128 235.482 182.203 235.482Z" fill="#F2F2F2"/>
<path d="M433.776 317.789L433.707 318.018C433.707 318.041 433.548 318.636 433.16 319.368C432.795 320.055 432.18 320.97 431.199 321.542C430.218 322.114 429.101 322.229 428.348 322.206C427.528 322.183 426.935 322.046 426.912 322.046L426.684 321.977L426.752 321.748C426.752 321.725 426.912 321.13 427.299 320.398C427.664 319.711 428.28 318.796 429.261 318.224C430.241 317.652 431.359 317.538 432.111 317.561C432.932 317.583 433.525 317.721 433.548 317.721L433.776 317.789ZM427.277 321.634C427.892 321.748 429.603 321.931 430.971 321.13C432.339 320.329 432.978 318.728 433.183 318.133C432.567 318.018 430.857 317.835 429.489 318.636C428.143 319.437 427.482 321.039 427.277 321.634Z" fill="#E4E4E4"/>
<path d="M430.538 323.258C428.371 324.082 425.954 322.984 425.954 322.984C425.954 322.984 427.049 320.558 429.215 319.735C431.381 318.911 433.799 320.009 433.799 320.009C433.799 320.009 432.704 322.435 430.538 323.258Z" fill="#F2F2F2"/>
<path d="M425.886 291.635V291.932C425.886 291.955 425.886 292.733 425.635 293.717C425.407 294.632 424.928 295.96 423.925 296.943C422.921 297.927 421.599 298.408 420.687 298.614C419.683 298.843 418.931 298.843 418.908 298.843H418.611V298.545C418.611 298.522 418.611 297.744 418.862 296.76C419.09 295.845 419.569 294.518 420.573 293.534C421.576 292.55 422.899 292.07 423.811 291.864C424.814 291.635 425.567 291.635 425.589 291.635H425.886ZM419.204 298.248C419.98 298.202 422.1 297.905 423.514 296.532C424.928 295.136 425.225 293.008 425.293 292.23C424.518 292.275 422.397 292.573 420.983 293.946C419.569 295.342 419.273 297.47 419.204 298.248Z" fill="#E4E4E4"/>
<path d="M423.605 299.231C421.234 300.879 417.995 300.307 417.995 300.307C417.995 300.307 418.588 297.058 420.96 295.41C423.332 293.763 426.57 294.335 426.57 294.335C426.57 294.335 425.977 297.561 423.605 299.231Z" fill="#F2F2F2"/>
<path d="M124.92 283.947L125.102 284.107C125.125 284.13 125.604 284.541 126.106 285.228C126.562 285.869 127.155 286.875 127.246 288.042C127.337 289.209 126.927 290.308 126.584 291.017C126.197 291.772 125.786 292.253 125.786 292.276L125.627 292.459L125.444 292.299C125.421 292.276 124.943 291.864 124.441 291.177C123.962 290.537 123.392 289.53 123.301 288.363C123.209 287.196 123.62 286.097 123.962 285.388C124.35 284.633 124.76 284.152 124.76 284.13L124.92 283.947ZM125.536 291.772C125.923 291.246 126.881 289.736 126.744 288.088C126.607 286.441 125.421 285.114 124.965 284.656C124.578 285.182 123.62 286.692 123.757 288.34C123.894 289.987 125.079 291.315 125.536 291.772Z" fill="#E4E4E4"/>
<path d="M128.523 289.46C128.295 291.863 126.197 293.625 126.197 293.625C126.197 293.625 124.441 291.497 124.669 289.094C124.897 286.692 126.995 284.93 126.995 284.93C126.995 284.93 128.751 287.058 128.523 289.46Z" fill="#F2F2F2"/>
<path d="M78.7647 311.703L78.9699 311.68C78.9927 311.68 79.5172 311.634 80.2241 311.772C80.8854 311.886 81.8204 312.138 82.5729 312.801C83.3255 313.442 83.7131 314.357 83.9184 314.975C84.1236 315.662 84.1692 316.188 84.1692 316.211L84.192 316.417L83.9868 316.44C83.964 316.44 83.4395 316.485 82.7326 316.348C82.0713 316.234 81.1363 315.982 80.3838 315.318C79.6312 314.678 79.2436 313.762 79.0383 313.145C78.8331 312.458 78.7875 311.932 78.7875 311.909L78.7647 311.703ZM83.736 316.028C83.6447 315.479 83.3483 314.014 82.2993 313.099C81.2503 312.184 79.7681 312.092 79.2208 312.092C79.312 312.641 79.6084 314.106 80.6574 315.021C81.6836 315.913 83.1887 316.028 83.736 316.028Z" fill="#E4E4E4"/>
<path d="M84.1691 312.893C85.4461 314.472 85.2181 316.783 85.2181 316.783C85.2181 316.783 82.9149 316.532 81.6378 314.953C80.3608 313.374 80.5889 311.063 80.5889 311.063C80.5889 311.063 82.8921 311.314 84.1691 312.893Z" fill="#F2F2F2"/>
<path d="M364.703 305.456H364.931C364.954 305.456 365.547 305.433 366.345 305.616C367.074 305.776 368.123 306.119 368.922 306.874C369.72 307.629 370.13 308.659 370.313 309.391C370.518 310.169 370.541 310.764 370.541 310.787V311.016H370.313C370.29 311.016 369.697 311.039 368.899 310.856C368.169 310.696 367.12 310.352 366.322 309.597C365.524 308.842 365.113 307.812 364.931 307.08C364.726 306.302 364.703 305.707 364.703 305.684V305.456ZM370.062 310.535C369.993 309.918 369.72 308.247 368.602 307.195C367.485 306.119 365.797 305.936 365.182 305.913C365.25 306.531 365.524 308.201 366.641 309.254C367.781 310.329 369.446 310.512 370.062 310.535Z" fill="#E4E4E4"/>
<path d="M370.7 307.035C372.046 308.865 371.704 311.428 371.704 311.428C371.704 311.428 369.15 311.039 367.781 309.232C366.436 307.401 366.778 304.838 366.778 304.838C366.778 304.838 369.355 305.204 370.7 307.035Z" fill="#F2F2F2"/>
<path d="M301.126 326.211H195.088L197.026 319.209L200.788 305.526L203.069 297.242L206.444 285.023L212.92 261.477L216.295 249.258L239.92 163.381H256.293L264.959 194.844L279.918 249.258L283.293 261.477L289.769 285.023L293.144 297.242L299.187 319.209L301.126 326.211Z" fill="#3F444F"/>
<path d="M301.126 326.212H195.088L197.026 319.21L200.788 305.526C274.673 301.155 264.936 194.867 264.936 194.867L299.187 319.21L301.126 326.212Z" fill="#343944"/>
<path d="M322.812 326.212H173.401V340.468H322.812V326.212Z" fill="#3F444F"/>
<path d="M301.126 326.211H195.088L197.026 319.209H299.187L301.126 326.211Z" fill="#111827"/>
<path d="M283.293 261.478C283.293 261.478 281.081 308.501 227.241 319.256L299.187 319.21L283.293 261.478Z" fill="#23272F"/>
<path d="M283.293 261.477H212.92L216.295 249.258H279.918L283.293 261.477Z" fill="white"/>
<path d="M293.144 297.242H203.069L206.444 285.023H289.769L293.144 297.242Z" fill="white"/>
<path d="M288.241 326.212C288.241 326.212 268.448 341.223 195.088 340.468H322.789V326.212H288.241Z" fill="#2F3541"/>
<path d="M344.749 345.181H149.366C148.043 345.181 146.971 344.106 146.971 342.778V342.71C146.971 341.383 148.043 340.307 149.366 340.307H344.749C346.072 340.307 347.144 341.383 347.144 342.71V342.778C347.167 344.083 346.095 345.181 344.749 345.181Z" fill="#111827"/>
<path d="M153.083 345.181H121.431C120.108 345.181 119.036 344.106 119.036 342.778V342.71C119.036 341.383 120.108 340.307 121.431 340.307H153.083C154.405 340.307 155.477 341.383 155.477 342.71V342.778C155.477 344.083 154.405 345.181 153.083 345.181Z" fill="#111827"/>
<path d="M106.927 345.181H73.6794C72.3567 345.181 71.2849 344.106 71.2849 342.778V342.71C71.2849 341.383 72.3567 340.307 73.6794 340.307H106.927C108.25 340.307 109.322 341.383 109.322 342.71V342.778C109.322 344.083 108.25 345.181 106.927 345.181Z" fill="#111827"/>
<path d="M386.937 345.181H359.64C358.318 345.181 357.246 344.106 357.246 342.778V342.71C357.246 341.383 358.318 340.307 359.64 340.307H386.937C388.259 340.307 389.331 341.383 389.331 342.71V342.778C389.354 344.083 388.259 345.181 386.937 345.181Z" fill="#111827"/>
<path d="M422.625 345.181H401.873C400.551 345.181 399.479 344.106 399.479 342.778V342.71C399.479 341.383 400.551 340.307 401.873 340.307H422.625C423.947 340.307 425.019 341.383 425.019 342.71V342.778C425.019 344.083 423.947 345.181 422.625 345.181Z" fill="#111827"/>
</svg>
