<svg height="512" viewBox="0 0 64 64" width="512" xmlns="http://www.w3.org/2000/svg"><g id="Flat"><path d="m20 29a1 1 0 0 0 -1-1 11 11 0 0 0 -10.78 8.8 1 1 0 0 0 .78 1.2h.2a1 1 0 0 0 1-.8 9 9 0 0 1 8.8-7.2 1 1 0 0 0 1-1z"/><path d="m18 45a1 1 0 0 0 2 0v-.67a3.24 3.24 0 0 0 -1-6.33 1.25 1.25 0 1 1 1.18-1.67 1.23 1.23 0 0 1 .07.42 1 1 0 0 0 2 0 3 3 0 0 0 -.19-1.08 3.24 3.24 0 0 0 -2.06-2v-.67a1 1 0 0 0 -2 0v.67a3.24 3.24 0 0 0 1 6.33 1.25 1.25 0 1 1 -1.18 1.67 1.23 1.23 0 0 1 -.07-.42 1 1 0 0 0 -2 0 3 3 0 0 0 .19 1.08 3.24 3.24 0 0 0 2.06 2z"/><circle cx="9" cy="40" r="1"/><path d="m29 40a1 1 0 0 0 -1.18.78 9 9 0 0 1 -8.82 7.22 1 1 0 0 0 0 2 11 11 0 0 0 10.78-8.8 1 1 0 0 0 -.78-1.2z"/><circle cx="29" cy="38" r="1"/><g fill="#fac816"><path d="m48 53h-19a3 3 0 0 1 -3-3 3 3 0 0 1 3-3h27a3 3 0 0 1 3 3 3 3 0 0 1 -3 3h-4"/><path d="m56 47h-27a3 3 0 0 1 -3-3 3 3 0 0 1 3-3h27a3 3 0 0 1 3 3 3 3 0 0 1 -3 3z"/><path d="m53 41h-27a3 3 0 0 1 -3-3 3 3 0 0 1 3-3h27a3 3 0 0 1 3 3 3 3 0 0 1 -3 3z"/><path d="m53 35h-27a3 3 0 0 1 -3-3 3 3 0 0 1 3-3h27a3 3 0 0 1 3 3 3 3 0 0 1 -3 3z"/><path d="m50 29h-27a3 3 0 0 1 -3-3 3 3 0 0 1 3-3h27a3 3 0 0 1 3 3 3 3 0 0 1 -3 3z"/><path d="m50 23h-27a3 3 0 0 1 -3-3 3 3 0 0 1 3-3h27a3 3 0 0 1 3 3 3 3 0 0 1 -3 3z"/><path d="m31 11h25a3 3 0 0 1 3 3 3 3 0 0 1 -3 3h-27a3 3 0 0 1 -3-3 3 3 0 0 1 3-3"/></g><path d="m56 11h-.78a3 3 0 0 1 .78 2 3 3 0 0 1 -3 3h-26.22a3 3 0 0 0 2.22 1h27a3 3 0 0 0 0-6z" fill="#ff9e00"/><path d="m50 17h-.78a3 3 0 0 1 .78 2 3 3 0 0 1 -3 3h-26.22a3 3 0 0 0 2.22 1h27a3 3 0 0 0 0-6z" fill="#ff9e00"/><path d="m50 23h-.78a3 3 0 0 1 .78 2 3 3 0 0 1 -3 3h-26.22a3 3 0 0 0 2.22 1h27a3 3 0 0 0 0-6z" fill="#ff9e00"/><path d="m53 29h-.78a3 3 0 0 1 .78 2 3 3 0 0 1 -3 3h-26.22a3 3 0 0 0 2.22 1h27a3 3 0 0 0 0-6z" fill="#ff9e00"/><path d="m53 35h-.78a3 3 0 0 1 .78 2 3 3 0 0 1 -3 3h-26.22a3 3 0 0 0 2.22 1h27a3 3 0 0 0 0-6z" fill="#ff9e00"/><path d="m56 41h-.78a3 3 0 0 1 .78 2 3 3 0 0 1 -3 3h-26.22a3 3 0 0 0 2.22 1h27a3 3 0 0 0 0-6z" fill="#ff9e00"/><path d="m56 47h-.78a3 3 0 0 1 .78 2 3 3 0 0 1 -3 3h-26.22a3 3 0 0 0 2.22 1h27a3 3 0 0 0 0-6z" fill="#ff9e00"/><circle cx="19" cy="39" fill="#fac816" r="14"/><path d="m20 29a1 1 0 0 0 -1-1 11 11 0 0 0 -10.78 8.8 1 1 0 0 0 .78 1.2h.2a1 1 0 0 0 1-.8 9 9 0 0 1 8.8-7.2 1 1 0 0 0 1-1z" fill="#ff9e00"/><path d="m18 45a1 1 0 0 0 2 0v-.67a3.24 3.24 0 0 0 -1-6.33 1.25 1.25 0 1 1 1.18-1.67 1.23 1.23 0 0 1 .07.42 1 1 0 0 0 2 0 3 3 0 0 0 -.19-1.08 3.24 3.24 0 0 0 -2.06-2v-.67a1 1 0 0 0 -2 0v.67a3.24 3.24 0 0 0 1 6.33 1.25 1.25 0 1 1 -1.18 1.67 1.23 1.23 0 0 1 -.07-.42 1 1 0 0 0 -2 0 3 3 0 0 0 .19 1.08 3.24 3.24 0 0 0 2.06 2z" fill="#ff9e00"/><circle cx="9" cy="40" fill="#ff9e00" r="1"/><path d="m29 40a1 1 0 0 0 -1.18.78 9 9 0 0 1 -8.82 7.22 1 1 0 0 0 0 2 11 11 0 0 0 10.78-8.8 1 1 0 0 0 -.78-1.2z" fill="#ff9e00"/><circle cx="29" cy="38" fill="#ff9e00" r="1"/><path d="m19 25a14 14 0 1 0 14 14 14 14 0 0 0 -14-14zm0 26a12 12 0 1 1 12-12 12 12 0 0 1 -12 12z" fill="#ff9e00"/></g></svg>