<?xml version="1.0" encoding="iso-8859-1"?>
<!-- Generator: Adobe Illustrator 21.0.0, SVG Export Plug-In . SVG Version: 6.00 Build 0)  -->
<svg version="1.1" id="Capa_1" xmlns="http://www.w3.org/2000/svg" xmlns:xlink="http://www.w3.org/1999/xlink" x="0px" y="0px"
	 viewBox="0 0 512 512" style="enable-background:new 0 0 512 512;" xml:space="preserve">
<path style="fill:#5CC45C;" d="M436.122,414.961H14.948c-4.113,0-7.448-3.335-7.448-7.448V159.347c0-4.113,3.335-7.448,7.448-7.448
	h421.174c4.113,0,7.448,3.335,7.448,7.448v248.166C443.569,411.626,440.235,414.961,436.122,414.961z"/>
<path style="fill:#4EAD4E;" d="M436.122,151.899H14.948c-4.113,0-7.448,3.335-7.448,7.448v241.737h436.069V159.347
	C443.569,155.234,440.235,151.899,436.122,151.899z"/>
<path style="fill:#5CC45C;" d="M465.588,388.529H44.415c-4.113,0-7.448-3.335-7.448-7.448V132.916c0-4.113,3.335-7.448,7.448-7.448
	h421.174c4.113,0,7.448,3.335,7.448,7.448v248.166C473.036,385.195,469.702,388.529,465.588,388.529z"/>
<path style="fill:#4EAD4E;" d="M465.588,125.468H44.415c-4.113,0-7.448,3.334-7.448,7.448V373.53h436.069V132.916
	C473.036,128.802,469.702,125.468,465.588,125.468z"/>
<path style="fill:#5CC45C;" d="M497.052,360.101H75.878c-4.113,0-7.448-3.335-7.448-7.448V104.487c0-4.113,3.335-7.448,7.448-7.448
	h421.174c4.113,0,7.448,3.335,7.448,7.448v248.166C504.5,356.766,501.165,360.101,497.052,360.101z"/>
<path style="fill:#4EAD4E;" d="M497.052,97.039h-46.416v263.062h46.416c4.113,0,7.448-3.335,7.448-7.448V104.487
	C504.5,100.374,501.165,97.039,497.052,97.039z"/>
<path style="fill:#A0E557;" d="M125.737,333.074c-1.574-15.967-14.312-28.706-30.28-30.28c-0.903-0.089-1.582-0.864-1.582-1.771
	V156.117c0-0.907,0.679-1.682,1.582-1.771c15.967-1.574,28.706-14.312,30.28-30.28c0.089-0.903,0.864-1.582,1.771-1.582h317.915
	c0.907,0,1.682,0.679,1.771,1.582c1.574,15.967,14.312,28.706,30.28,30.28c0.903,0.089,1.582,0.864,1.582,1.771v144.907
	c0,0.907-0.679,1.682-1.582,1.771c-15.967,1.574-28.706,14.312-30.28,30.28c-0.089,0.903-0.864,1.582-1.771,1.582H307.5h-13.833h-21
	H127.508C126.601,334.656,125.826,333.977,125.737,333.074z"/>
<path style="fill:#93CC4A;" d="M477.473,154.345c-15.967-1.573-28.706-14.312-30.28-30.28c-0.089-0.903-0.864-1.582-1.771-1.582
	h-21.367v212.172h21.367c0.907,0,1.682-0.679,1.771-1.582c1.574-15.967,14.312-28.706,30.28-30.28
	c0.903-0.089,1.582-0.864,1.582-1.771V156.116C479.055,155.209,478.376,154.434,477.473,154.345z"/>
<circle style="fill:#F3E8D7;" cx="286.46" cy="228.57" r="71.965"/>
<path style="fill:#DDD1C3;" d="M286.465,156.605c-9.742,0-19.026,1.946-27.5,5.453c26.099,10.803,44.465,36.508,44.465,66.511
	s-18.366,55.708-44.465,66.511c8.474,3.508,17.758,5.453,27.5,5.453c39.745,0,71.965-32.22,71.965-71.965
	C358.43,188.825,326.21,156.605,286.465,156.605z"/>
<path d="M284.572,264.877c-14.225-0.23-23.862-7.916-23.862-13.537c0-2.754,2.409-6.539,5.277-6.539
	c3.786,0,6.883,8.031,18.585,8.948V226.79c-10.325-3.671-21.797-7.801-21.797-22.485c0-14.455,10.898-20.191,21.797-21.338v-3.327
	c0-1.377,1.377-2.639,3.327-2.639c1.721,0,3.441,1.262,3.441,2.639v3.098c7.801,0.229,18.814,2.639,18.814,8.26
	c0,2.18-1.606,6.539-5.048,6.539c-2.753,0-5.736-3.671-13.766-4.245v23.288c9.981,3.671,20.879,8.719,20.879,24.321
	c0,14.111-8.489,21.912-20.879,23.633v3.9c0,1.377-1.721,2.639-3.441,2.639c-1.95,0-3.327-1.262-3.327-2.639V264.877z
	 M285.261,214.399V193.52c-6.425,0.803-11.013,3.671-11.013,9.636C274.248,209.695,279.18,212.105,285.261,214.399z
	 M290.653,229.313v24.206c6.195-1.147,10.095-4.818,10.095-11.358C300.748,234.934,296.274,231.722,290.653,229.313z"/>
<path d="M497.052,89.539H75.879c-8.242,0-14.948,6.706-14.948,14.948v13.48H44.415c-8.242,0-14.948,6.706-14.948,14.948v11.483
	H14.948C6.706,144.399,0,151.105,0,159.348v248.165c0,8.242,6.706,14.948,14.948,14.948h421.173c8.242,0,14.948-6.706,14.948-14.948
	V396.03h14.519c8.242,0,14.948-6.705,14.948-14.947v-13.481h16.516c8.242,0,14.948-6.705,14.948-14.947V104.487
	C512,96.245,505.294,89.539,497.052,89.539z M15,407.513L14.948,159.4h14.519v221.683c0,8.242,6.706,14.947,14.948,14.947H436.09
	l0.031,11.432L15,407.513z M44.467,381.082l-0.052-248.114h16.516v219.686c0,8.242,6.706,14.947,14.948,14.947h389.676l0.033,13.429
	l-21.964,0.003c-0.018,0-0.036-0.003-0.054-0.003s-0.036,0.003-0.055,0.003L44.467,381.082 M75.931,352.653l-0.052-248.114
	L497,104.487l0.056,248.113l0,0c-0.02,0,0,0-0.02,0s0.04,0,0.02,0L75.931,352.653"/>
<path d="M478.21,146.882c-12.423-1.225-22.328-11.13-23.553-23.552c-0.469-4.758-4.438-8.347-9.234-8.347H307.611
	c-4.143,0-7.5,3.357-7.5,7.5s3.357,7.5,7.5,7.5h132.966c3.53,15.346,15.633,27.448,30.979,30.979v135.216
	c-15.346,3.53-27.448,15.633-30.979,30.979H307.5c-4.143,0-7.5,3.357-7.5,7.5s3.357,7.5,7.5,7.5h137.923
	c4.796,0,8.766-3.589,9.234-8.347c1.225-12.422,11.13-22.327,23.552-23.552c4.758-0.469,8.347-4.438,8.347-9.234V156.116
	C486.556,151.32,482.967,147.351,478.21,146.882z"/>
<path d="M272.667,327.156H132.354c-3.53-15.346-15.632-27.448-30.979-30.979V160.962c15.346-3.53,27.448-15.632,30.979-30.979
	h140.36c4.143,0,7.5-3.357,7.5-7.5s-3.357-7.5-7.5-7.5H127.508c-4.796,0-8.766,3.589-9.234,8.346
	c-1.225,12.423-11.13,22.328-23.552,23.553c-4.758,0.469-8.347,4.438-8.347,9.234v144.907c0,4.796,3.589,8.766,8.347,9.234
	c12.422,1.225,22.327,11.13,23.552,23.552c0.469,4.758,4.438,8.347,9.234,8.347h145.159c4.143,0,7.5-3.357,7.5-7.5
	S276.81,327.156,272.667,327.156z"/>
<path d="M365.93,228.57c0-43.817-35.647-79.465-79.465-79.465S207,184.753,207,228.57s35.647,79.465,79.465,79.465
	S365.93,272.388,365.93,228.57z M286.465,293.035c-35.546,0-64.465-28.919-64.465-64.465s28.919-64.465,64.465-64.465
	s64.465,28.919,64.465,64.465S322.011,293.035,286.465,293.035z"/>
<g>
</g>
<g>
</g>
<g>
</g>
<g>
</g>
<g>
</g>
<g>
</g>
<g>
</g>
<g>
</g>
<g>
</g>
<g>
</g>
<g>
</g>
<g>
</g>
<g>
</g>
<g>
</g>
<g>
</g>
</svg>
